<?xml version="1.0" encoding="UTF-8"?>
<svg id="Calque_2" data-name="Calque 2" xmlns="http://www.w3.org/2000/svg" viewBox="0 0 458.16 458.16">
  <defs>
    <style>
      .cls-1 {
        fill: #5758bb;
      }
    </style>
  </defs>
  <g id="Calque_1-2" data-name="Calque 1">
    <g>
      <path class="cls-1" d="M.16,331h-.16v40h.16c47.97,0,87,39.03,87,87v.16h40v-.16c0-70.14-56.86-127-127-127Z"/>
      <path class="cls-1" d="M.14,283.71h-.14v34.43h.14c19.11,0,37.47,3.82,54.45,11.02,16.68,7.06,31.69,17.24,44.43,29.98,12.75,12.74,22.92,27.75,29.99,44.44,7.19,16.97,11.01,35.34,11.01,54.44v.14h34.43v-.14c0-96.27-78.04-174.31-174.31-174.31Z"/>
      <path class="cls-1" d="M.12,236.43h-.12v28.86h.12c26.2,0,51.48,5.19,75.03,15.16,22.97,9.73,43.63,23.7,61.25,41.31,17.61,17.62,31.58,38.28,41.31,61.26,9.97,23.54,15.17,48.82,15.17,75.03v.11h28.85v-.11C221.73,335.65,122.51,236.43.12,236.43Z"/>
      <path class="cls-1" d="M.09,189.14h-.09v23.29h.09c33.31,0,65.51,6.58,95.62,19.32,29.27,12.38,55.57,30.15,78.06,52.64s40.26,48.8,52.65,78.06c12.74,30.11,19.31,62.31,19.31,95.62v.09h23.29v-.09C269.02,309.54,148.62,189.14.09,189.14Z"/>
      <path class="cls-1" d="M.07,141.86h-.07v17.71h.07c40.41,0,79.53,7.96,116.2,23.47,35.56,15.05,67.51,36.61,94.87,63.98,27.37,27.36,48.93,59.31,63.98,94.87,15.52,36.67,23.47,75.79,23.47,116.2v.07h17.71v-.07C316.3,283.44,174.72,141.86.07,141.86Z"/>
      <path class="cls-1" d="M.05,94.57h-.05v12.14h.05c47.51,0,93.54,9.34,136.78,27.63,41.85,17.7,79.45,43.07,111.69,75.31s57.6,69.83,75.31,111.68c18.29,43.24,27.62,89.27,27.62,136.78v.05h12.14v-.05C363.59,257.33,200.83,94.57.05,94.57Z"/>
      <path class="cls-1" d="M.02,47.29h-.02v6.57h.02c54.62,0,107.57,10.71,157.37,31.77,48.14,20.37,91.39,49.53,128.5,86.64s66.28,80.36,86.64,128.5c21.06,49.8,31.77,102.75,31.77,157.37v.02h6.58v-.02C410.88,231.23,226.93,47.29.02,47.29Z"/>
      <path class="cls-1" d="M0,0v1c61.72,0,121.59,12.09,177.95,35.93,54.44,23.02,103.33,55.98,145.31,97.97,41.99,41.98,74.95,90.87,97.98,145.31,23.83,56.36,35.92,116.23,35.92,177.95h1C458.16,205.13,253.04,0,0,0Z"/>
    </g>
  </g>
</svg>