<?xml version="1.0" encoding="UTF-8"?>
<svg id="Calque_2" data-name="Calque 2" xmlns="http://www.w3.org/2000/svg" viewBox="0 0 386.43 294.8">
  <defs>
    <style>
      .cls-1 {
        fill: none;
        stroke: #5758bb;
        stroke-linejoin: round;
        stroke-width: 10px;
      }
    </style>
  </defs>
  <g id="Calque_1-2" data-name="Calque 1">
    <polygon class="cls-1" points="246.1 181.63 202.88 210.82 184.43 223.28 182.23 224.76 144.15 250.48 87.87 288.48 5 205.61 184.43 182.56 202 180.31 246.1 181.63"/>
    <polygon class="cls-1" points="202 15.03 202 180.31 184.43 182.56 5 205.61 87.41 123.2 202 15.03"/>
    <polygon class="cls-1" points="314.61 116.59 249.69 203.17 184.72 289.8 87.87 288.48 144.15 250.48 182.23 224.76 184.43 223.28 202.88 210.82 246.1 181.63 314.61 116.59"/>
    <polygon class="cls-1" points="381.43 5 251.77 108.18 238.55 83.45 381.43 5"/>
    <polygon class="cls-1" points="381.43 181.63 249.69 203.17 314.61 116.59 381.43 181.63"/>
    <polygon class="cls-1" points="381.43 5 381.43 181.63 314.61 116.59 246.1 181.63 202 180.31 202 15.03 238.55 83.45 251.77 108.18 381.43 5"/>
  </g>
</svg>