<?xml version="1.0" encoding="UTF-8"?>
<svg id="Calque_1" data-name="Calque 1" xmlns="http://www.w3.org/2000/svg" viewBox="0 0 1920 6480">
  <defs>
    <style>
      .cls-1 {
        fill: none;
        stroke: #5758bb;
        stroke-miterlimit: 10;
        stroke-width: 30px;
      }
    </style>
  </defs>
  <path class="cls-1" d="M1630.94,0s-146.27,374.98-509.94,306.56c-369.91-69.59-536.37-22.03-722.22,266.67-201.52,313.03-144.39,586.14,144.44,661.11,616.09,159.91,482.32-252.27,869.25-466.67,357.64-198.17,714.08-77.78,869.64,211.11s361.11,794.44,27.78,1033.33-1061.11,205.56-1133.33-88.89-200-438.89-366.67-438.89-411.04,33.33-474.96,272.22-19.48,661.11-375.04,700-338.89,400-294.44,550,366.67,305.56,538.89,133.33,238.89-500,555.56-433.33,550,205.56,633.33,438.89,133.33,755.56-233.33,822.22-711.11-416.67-1183.33-244.44-516.67,666.67-255.56,888.89,633.33,105.56,816.67-116.67,588.89-433.33,938.89-244.44,300,711.11,133.33,811.11-761.11-288.89-1027.78,0-144.44,722.22,172.22,672.22,522.22-755.56,1216.67-522.22,300,1122.22-305.56,944.44-900,38.89-927.78,422.22"/>
</svg>